# Blender 5.1.1
# www.blender.org
o Text.003
v -1.115625 0.200000 0.250000
v -0.928125 0.200000 0.250000
v -0.928125 0.200000 -0.187500
v -1.115625 0.200000 -0.187500
v -0.834375 0.200000 0.312500
v -1.209375 0.200000 0.312500
v -1.209375 0.200000 0.250000
v -1.303125 0.200000 0.250000
v -1.303125 0.200000 -0.187500
v -1.209375 0.200000 -0.187500
v -1.209375 0.200000 -0.250000
v -0.834375 0.200000 -0.250000
v -0.834375 0.200000 -0.187500
v -0.740625 0.200000 -0.187500
v -0.740625 0.200000 0.250000
v -0.834375 0.200000 0.250000
v -1.115625 -0.200000 0.250000
v -0.928125 -0.200000 0.250000
v -0.928125 -0.200000 -0.187500
v -1.115625 -0.200000 -0.187500
v -0.834375 -0.200000 0.312500
v -1.209375 -0.200000 0.312500
v -1.209375 -0.200000 0.250000
v -1.303125 -0.200000 0.250000
v -1.303125 -0.200000 -0.187500
v -1.209375 -0.200000 -0.187500
v -1.209375 -0.200000 -0.250000
v -0.834375 -0.200000 -0.250000
v -0.834375 -0.200000 -0.187500
v -0.740625 -0.200000 -0.187500
v -0.740625 -0.200000 0.250000
v -0.834375 -0.200000 0.250000
v -1.115625 -0.200000 0.250000
v -1.115625 0.200000 0.250000
v -0.928125 -0.200000 0.250000
v -0.928125 0.200000 0.250000
v -0.928125 -0.200000 -0.187500
v -0.928125 0.200000 -0.187500
v -1.115625 -0.200000 -0.187500
v -1.115625 0.200000 -0.187500
v -0.834375 -0.200000 0.312500
v -0.834375 0.200000 0.312500
v -1.209375 -0.200000 0.312500
v -1.209375 0.200000 0.312500
v -1.209375 -0.200000 0.250000
v -1.209375 0.200000 0.250000
v -1.303125 -0.200000 0.250000
v -1.303125 0.200000 0.250000
v -1.303125 -0.200000 -0.187500
v -1.303125 0.200000 -0.187500
v -1.209375 -0.200000 -0.187500
v -1.209375 0.200000 -0.187500
v -1.209375 -0.200000 -0.250000
v -1.209375 0.200000 -0.250000
v -0.834375 -0.200000 -0.250000
v -0.834375 0.200000 -0.250000
v -0.834375 -0.200000 -0.187500
v -0.834375 0.200000 -0.187500
v -0.740625 -0.200000 -0.187500
v -0.740625 0.200000 -0.187500
v -0.740625 -0.200000 0.250000
v -0.740625 0.200000 0.250000
v -0.834375 -0.200000 0.250000
v -0.834375 0.200000 0.250000
vn -0.0000 1.0000 -0.0000
vn -0.0000 -1.0000 -0.0000
vn -0.0000 -0.0000 -1.0000
vn -1.0000 -0.0000 -0.0000
vn -0.0000 -0.0000 1.0000
vn 1.0000 -0.0000 -0.0000
vt 0.533333 0.000000
vt 0.466667 0.000000
vt 0.400000 0.000000
vt 0.000000 0.000000
vt 0.200000 0.000000
vt 0.600000 0.000000
vt 0.666667 0.000000
vt 0.333333 0.000000
vt 0.266667 0.000000
vt 1.000000 0.000000
vt 0.066667 0.000000
vt 0.133333 0.000000
vt 0.933333 0.000000
vt 0.866667 0.000000
vt 0.800000 0.000000
vt 0.733333 0.000000
vt 0.000000 1.000000
vt 0.250000 1.000000
vt 0.250000 0.000000
vt 0.500000 1.000000
vt 0.500000 0.000000
vt 0.750000 1.000000
vt 0.750000 0.000000
vt 1.000000 1.000000
vt 0.083333 1.000000
vt 0.083333 0.000000
vt 0.166667 1.000000
vt 0.166667 0.000000
vt 0.333333 1.000000
vt 0.416667 1.000000
vt 0.416667 0.000000
vt 0.583333 1.000000
vt 0.583333 0.000000
vt 0.666667 1.000000
vt 0.833333 1.000000
vt 0.833333 0.000000
vt 0.916667 1.000000
vt 0.916667 0.000000
s 0
f 9/1/1 8/2/1 7/3/1
f 1/4/1 4/5/1 10/6/1
f 11/7/1 10/6/1 4/5/1
f 7/3/1 6/8/1 1/4/1
f 1/4/1 10/6/1 7/3/1
f 9/1/1 7/3/1 10/6/1
f 5/9/1 16/10/1 2/11/1
f 3/12/1 2/11/1 16/10/1
f 15/13/1 14/14/1 13/15/1
f 15/13/1 13/15/1 16/10/1
f 3/12/1 16/10/1 13/15/1
f 13/15/1 12/16/1 3/12/1
f 1/4/1 6/8/1 5/9/1
f 5/9/1 2/11/1 1/4/1
f 11/7/1 4/5/1 3/12/1
f 3/12/1 12/16/1 11/7/1
f 25/1/2 23/3/2 24/2/2
f 17/4/2 26/6/2 20/5/2
f 27/7/2 20/5/2 26/6/2
f 23/3/2 17/4/2 22/8/2
f 17/4/2 23/3/2 26/6/2
f 25/1/2 26/6/2 23/3/2
f 21/9/2 18/11/2 32/10/2
f 19/12/2 32/10/2 18/11/2
f 31/13/2 29/15/2 30/14/2
f 31/13/2 32/10/2 29/15/2
f 19/12/2 29/15/2 32/10/2
f 29/15/2 19/12/2 28/16/2
f 17/4/2 21/9/2 22/8/2
f 21/9/2 17/4/2 18/11/2
f 27/7/2 19/12/2 20/5/2
f 19/12/2 27/7/2 28/16/2
f 34/17/3 36/18/3 35/19/3 33/4/3
f 36/18/4 38/20/4 37/21/4 35/19/4
f 38/20/5 40/22/5 39/23/5 37/21/5
f 40/22/6 34/24/6 33/10/6 39/23/6
f 42/17/5 44/25/5 43/26/5 41/4/5
f 44/25/4 46/27/4 45/28/4 43/26/4
f 46/27/5 48/18/5 47/19/5 45/28/5
f 48/18/4 50/29/4 49/8/4 47/19/4
f 50/29/3 52/30/3 51/31/3 49/8/3
f 52/30/4 54/20/4 53/21/4 51/31/4
f 54/20/3 56/32/3 55/33/3 53/21/3
f 56/32/6 58/34/6 57/7/6 55/33/6
f 58/34/3 60/22/3 59/23/3 57/7/3
f 60/22/6 62/35/6 61/36/6 59/23/6
f 62/35/5 64/37/5 63/38/5 61/36/5
f 64/37/6 42/24/6 41/10/6 63/38/6
